<?xml version="1.0" encoding="utf-8"?>
<!-- Generator: Adobe Illustrator 16.0.3, SVG Export Plug-In . SVG Version: 6.00 Build 0)  -->
<svg version="1.1" id="Kompass"
	 xmlns="http://www.w3.org/2000/svg" xmlns:xlink="http://www.w3.org/1999/xlink" x="0px" y="0px" width="800px" height="800px"
	 viewBox="0 0 800 800" enable-background="new 0 0 800 800" xml:space="preserve">
<symbol  id="elm" viewBox="-300.5 -300.5 601 601">
	<polygon fill="#FBFBFB" stroke="#333" stroke-linejoin="round" points="0,300 30,30 300,0 30,-30 0,-300 -30,-30 -300,0 -30,30
			"/>
	<polygon fill="#999" stroke="#333" points="0,300 30,30 0,0 30,-30 0,-300 	"/>
	<polygon fill="#999" stroke="#333" points="300,0 30,-30 0,0 -30,-30 -300,0 	"/>
	<line fill="none" stroke="#333" x1="-30" y1="30" x2="0" y2="0"/>
</symbol>
<use xlink:href="#elm"  width="601" height="601" x="-300.5" y="-300.5" transform="matrix(0.7179 -0.2974 -0.2974 -0.7179 400 400)" overflow="visible"/>
<use xlink:href="#elm"  width="601" height="601" x="-300.5" y="-300.5" transform="matrix(0.7179 0.2974 -0.2974 0.7179 400 400)" overflow="visible"/>
<use xlink:href="#elm"  width="601" height="601" x="-300.5" y="-300.5" transform="matrix(0.6267 0.6267 0.6267 -0.6267 400 400)" overflow="visible"/>
<polygon fill="#CCE3FF" stroke="#333" points="588,212 437.6,400 400,400
	400,362.4 "/>
<polygon fill="#39C" stroke="#333" points="588,212 437.6,400 400,400 "/>
<use xlink:href="#elm"  width="601" height="601" x="-300.5" y="-300.5" transform="matrix(1 0 0 -1 400 400)" overflow="visible"/>
<g id="text">
	<text transform="matrix(1 0 0 1 378.3352 72.4434)" fill="#333" font-family="'Arial-BoldMT'" font-size="60">N</text>
	<text transform="matrix(1 0 0 1 379.9905 756.4434)" fill="#333" font-family="'Arial-BoldMT'" font-size="60">S</text>
	<text transform="matrix(1 0 0 1 29.6843 414.4434)" fill="#333" font-family="'Arial-BoldMT'" font-size="60">W</text>
	<text transform="matrix(1 0 0 1 718.6653 414.4434)" fill="#333" font-family="'Arial-BoldMT'" font-size="60">O</text>
	<text transform="matrix(1 0 0 1 132.0139 192.1104)" fill="#333" font-family="'Arial-BoldMT'" font-size="42">NW</text>
	<text transform="matrix(1 0 0 1 602.5002 192.1104)" fill="#39C" font-family="'Arial-BoldMT'" font-size="42">NO</text>
	<text transform="matrix(1 0 0 1 133.1726 628.1104)" fill="#333" font-family="'Arial-BoldMT'" font-size="42">SW</text>
	<text transform="matrix(1 0 0 1 602.6584 628.1104)" fill="#333" font-family="'Arial-BoldMT'" font-size="42">SO</text>
	<text transform="matrix(1 0 0 1 247.8518 134.4492)" fill="#333" font-family="'Arial-BoldMT'" font-size="28">NNW</text>
	<text transform="matrix(1 0 0 1 490.9885 134.4492)" fill="#333" font-family="'Arial-BoldMT'" font-size="28">NNO</text>
	<text transform="matrix(1 0 0 1 104.679 293.4375)" fill="#333" font-family="'Arial-BoldMT'" font-size="28">WNW</text>
	<text transform="matrix(1 0 0 1 630.2112 293.4375)" fill="#333" font-family="'Arial-BoldMT'" font-size="28">ONO</text>
	<text transform="matrix(1 0 0 1 105.5266 513.7021)" fill="#333" font-family="'Arial-BoldMT'" font-size="28">WSW</text>
	<text transform="matrix(1 0 0 1 630.2112 513.7021)" fill="#333" font-family="'Arial-BoldMT'" font-size="28">OSO</text>
	<text transform="matrix(1 0 0 1 249.5471 672.4063)" fill="#333" font-family="'Arial-BoldMT'" font-size="28">SSW</text>
	<text transform="matrix(1 0 0 1 492.6858 672.4063)" fill="#333" font-family="'Arial-BoldMT'" font-size="28">SSO</text>
</g>
</svg>
